# This file uses centimeters as units for non-parametric coordinates.

mtllib cmdpod_mm.mtl
g default
v 8.559514 3.255746 -2.781155
v 7.281157 3.255746 -5.290070
v 5.290070 3.255746 -7.281158
v 2.781154 3.255746 -8.559513
v 0.000000 3.255746 -9.000003
v -2.781154 3.255746 -8.559513
v -5.290069 3.255746 -7.281156
v -7.281155 3.255746 -5.290070
v -8.559511 3.255746 -2.781153
v -9.000002 3.255746 0.000000
v -8.559511 3.255746 2.781153
v -7.281154 3.255746 5.290070
v -5.290068 3.255746 7.281153
v -2.781154 3.255746 8.559508
v -0.000000 3.255746 9.000001
v 2.781153 3.255746 8.559508
v 5.290067 3.255746 7.281153
v 7.281153 3.255746 5.290067
v 8.559509 3.255746 2.781153
v 9.000000 3.255746 0.000000
v 8.559514 7.629809 -2.781155
v 7.281157 7.629809 -5.290070
v 5.290070 7.629809 -7.281158
v 2.781154 7.629809 -8.559513
v 0.000000 7.629809 -9.000003
v -2.781154 7.629809 -8.559513
v -5.290069 7.629809 -7.281156
v -7.281155 7.629809 -5.290070
v -8.559511 7.629809 -2.781153
v -9.000002 7.629809 0.000000
v -8.559511 7.629809 2.781153
v -7.281154 7.629809 5.290070
v -5.290068 7.629809 7.281153
v -2.781154 7.629809 8.559508
v -0.000000 7.629809 9.000001
v 2.781153 7.629809 8.559508
v 5.290067 7.629809 7.281153
v 7.281153 7.629809 5.290067
v 8.559509 7.629809 2.781153
v 9.000000 7.629809 0.000000
v 3.358092 14.913571 -1.091111
v 2.856566 14.913571 -2.075419
v 0.000000 14.913581 0.000000
v 2.075416 14.913571 -2.856567
v 1.091111 14.913571 -3.358092
v -0.000000 14.913571 -3.530905
v -1.091111 14.913581 -3.358097
v -2.075416 14.913581 -2.856569
v -2.856565 14.913571 -2.075419
v -3.358094 14.913571 -1.091108
v -3.530907 14.913571 0.000002
v -3.358093 14.913571 1.091115
v -2.856565 14.913581 2.075429
v -2.075415 14.913581 2.856574
v -1.091110 14.913571 3.358088
v -0.000000 14.913571 3.530903
v 1.091110 14.913571 3.358083
v 2.075415 14.913571 2.856560
v 2.856564 14.913571 2.075415
v 3.358092 14.913581 1.091118
v 3.530909 14.913571 0.000010
v 6.659349 3.255746 -2.163751
v 5.664780 3.255746 -4.115703
v 4.115704 3.255746 -5.664780
v 2.163753 3.255746 -6.659348
v 0.000000 3.255746 -7.002051
v -2.163753 3.255746 -6.659348
v -4.115703 3.255746 -5.664783
v -5.664779 3.255746 -4.115703
v -6.659347 3.255746 -2.163754
v -7.002051 3.255746 0.000000
v -6.659347 3.255746 2.163754
v -5.664778 3.255746 4.115705
v -4.115703 3.255746 5.664778
v -2.163753 3.255746 6.659346
v -0.000000 3.255746 7.002048
v 2.163752 3.255746 6.659346
v 4.115702 3.255749 5.664778
v 5.664777 3.255746 4.115703
v 6.659345 3.255746 2.163754
v 7.002050 3.255746 0.000000
v 5.653692 6.942630 -1.836993
v 4.809318 6.942630 -3.494178
v -0.000000 6.942630 0.000000
v 3.494174 6.942630 -4.809321
v 1.836996 6.942628 -5.653685
v 0.000000 6.942630 -5.944640
v -1.836996 6.942630 -5.653691
v -3.494174 6.942630 -4.809321
v -4.809317 6.942628 -3.494166
v -5.653691 6.942630 -1.836988
v -5.944642 6.942630 0.000000
v -5.653691 6.942630 1.836994
v -4.809316 6.942628 3.494170
v -3.494173 6.942630 4.809318
v -1.836996 6.942630 5.653689
v -0.000000 6.942630 5.944638
v 1.836993 6.942630 5.653689
v 3.494171 6.942630 4.809315
v 4.809317 6.942630 3.494170
v 5.653690 6.942630 1.836997
v 5.944642 6.942630 0.000000
vt 0.648603 0.107966
vt 0.626409 0.064408
vt 0.591842 0.029841
vt 0.548284 0.007647
vt 0.500000 -0.000000
vt 0.451716 0.007647
vt 0.408159 0.029841
vt 0.373591 0.064409
vt 0.351397 0.107966
vt 0.343750 0.156250
vt 0.351397 0.204534
vt 0.373591 0.248091
vt 0.408159 0.282659
vt 0.451716 0.304853
vt 0.500000 0.312500
vt 0.548284 0.304853
vt 0.591841 0.282659
vt 0.626409 0.248091
vt 0.648603 0.204534
vt 0.656250 0.156250
vt 0.375000 0.312500
vt 0.387500 0.312500
vt 0.400000 0.312500
vt 0.412500 0.312500
vt 0.425000 0.312500
vt 0.437500 0.312500
vt 0.450000 0.312500
vt 0.462500 0.312500
vt 0.475000 0.312500
vt 0.487500 0.312500
vt 0.500000 0.312500
vt 0.512500 0.312500
vt 0.525000 0.312500
vt 0.537500 0.312500
vt 0.550000 0.312500
vt 0.562500 0.312500
vt 0.575000 0.312500
vt 0.587500 0.312500
vt 0.600000 0.312500
vt 0.612500 0.312500
vt 0.625000 0.312500
vt 0.375000 0.688440
vt 0.387500 0.688440
vt 0.400000 0.688440
vt 0.412500 0.688440
vt 0.425000 0.688440
vt 0.437500 0.688440
vt 0.450000 0.688440
vt 0.462500 0.688440
vt 0.475000 0.688440
vt 0.487500 0.688440
vt 0.500000 0.688440
vt 0.512500 0.688440
vt 0.525000 0.688440
vt 0.537500 0.688440
vt 0.550000 0.688440
vt 0.562500 0.688440
vt 0.575000 0.688440
vt 0.587500 0.688440
vt 0.600000 0.688440
vt 0.612500 0.688440
vt 0.625000 0.688440
vt 0.648603 0.795466
vt 0.626409 0.751908
vt 0.591842 0.717341
vt 0.548284 0.695147
vt 0.500000 0.687500
vt 0.451716 0.695147
vt 0.408159 0.717341
vt 0.373591 0.751909
vt 0.351397 0.795466
vt 0.343750 0.843750
vt 0.351397 0.892034
vt 0.373591 0.935591
vt 0.408159 0.970159
vt 0.451716 0.992353
vt 0.500000 1.000000
vt 0.548284 0.992353
vt 0.591841 0.970159
vt 0.626409 0.935591
vt 0.648603 0.892034
vt 0.656250 0.843750
vt 0.500000 0.150000
vt 0.500000 0.837500
vt 0.648603 0.892034
vt 0.626409 0.935591
vt 0.591841 0.970159
vt 0.548284 0.992353
vt 0.500000 1.000000
vt 0.451716 0.992353
vt 0.408159 0.970159
vt 0.373591 0.935591
vt 0.351397 0.892034
vt 0.343750 0.843750
vt 0.351397 0.795466
vt 0.373591 0.751909
vt 0.408159 0.717341
vt 0.451716 0.695147
vt 0.500000 0.687500
vt 0.548284 0.695147
vt 0.591842 0.717341
vt 0.626409 0.751908
vt 0.648603 0.795466
vt 0.656250 0.843750
vt 0.626409 0.064408
vt 0.648603 0.107966
vt 0.591842 0.029841
vt 0.548284 0.007647
vt 0.500000 -0.000000
vt 0.451716 0.007647
vt 0.408159 0.029841
vt 0.373591 0.064409
vt 0.351397 0.107966
vt 0.343750 0.156250
vt 0.351397 0.204534
vt 0.373591 0.248091
vt 0.408159 0.282659
vt 0.451716 0.304853
vt 0.500000 0.312500
vt 0.548284 0.304853
vt 0.591841 0.282659
vt 0.626409 0.248091
vt 0.648603 0.204534
vt 0.656250 0.156250
vt 0.626409 0.064408
vt 0.648603 0.107966
vt 0.591842 0.029841
vt 0.548284 0.007647
vt 0.500000 -0.000000
vt 0.451716 0.007647
vt 0.408159 0.029841
vt 0.373591 0.064409
vt 0.351397 0.107966
vt 0.343750 0.156250
vt 0.351397 0.204534
vt 0.373591 0.248091
vt 0.408159 0.282659
vt 0.451716 0.304853
vt 0.500000 0.312500
vt 0.548284 0.304853
vt 0.591841 0.282659
vt 0.626409 0.248091
vt 0.648603 0.204534
vt 0.656250 0.156250
vn 0.951057 0.000000 -0.309016
vn 0.809017 0.000000 -0.587785
vn 0.809017 0.000000 -0.587785
vn 0.951057 0.000000 -0.309016
vn 0.587785 0.000000 -0.809017
vn 0.587785 0.000000 -0.809017
vn 0.309017 0.000000 -0.951057
vn 0.309017 0.000000 -0.951057
vn 0.000000 0.000000 -1.000000
vn 0.000000 0.000000 -1.000000
vn -0.309017 0.000000 -0.951057
vn -0.309017 0.000000 -0.951057
vn -0.587785 0.000000 -0.809017
vn -0.587785 0.000000 -0.809017
vn -0.809017 0.000000 -0.587785
vn -0.809017 0.000000 -0.587785
vn -0.951057 0.000000 -0.309017
vn -0.951057 0.000000 -0.309017
vn -1.000000 0.000000 0.000000
vn -1.000000 0.000000 0.000000
vn -0.951057 0.000000 0.309017
vn -0.951057 0.000000 0.309017
vn -0.809017 0.000000 0.587785
vn -0.809017 0.000000 0.587785
vn -0.587785 0.000000 0.809017
vn -0.587785 0.000000 0.809017
vn -0.309017 0.000000 0.951056
vn -0.309017 0.000000 0.951056
vn 0.000000 0.000000 1.000000
vn 0.000000 0.000000 1.000000
vn 0.309017 0.000000 0.951056
vn 0.309017 0.000000 0.951056
vn 0.587785 0.000000 0.809017
vn 0.587785 0.000000 0.809017
vn 0.809017 0.000000 0.587785
vn 0.809017 0.000000 0.587785
vn 0.951057 0.000000 0.309017
vn 0.951057 0.000000 0.309017
vn 1.000000 0.000000 0.000001
vn 1.000000 0.000000 0.000001
vn 0.000000 -1.000000 0.000000
vn 0.000000 -1.000000 0.000000
vn 0.000000 -1.000000 0.000000
vn 0.000001 -1.000000 0.000000
vn -0.000000 -1.000000 0.000000
vn -0.000001 -1.000000 0.000000
vn 0.000000 -1.000000 0.000000
vn 0.000001 -1.000000 -0.000000
vn 0.000000 -1.000000 0.000000
vn -0.000000 -1.000000 0.000001
vn 0.000000 -1.000000 0.000000
vn -0.000000 -1.000000 -0.000001
vn 0.000000 -1.000000 -0.000000
vn 0.000001 -1.000000 0.000000
vn 0.000000 -1.000000 -0.000000
vn 0.000000 -1.000000 -0.000000
vn 0.000000 -1.000000 0.000000
vn 0.000000 -1.000000 0.000000
vn 0.000000 -1.000000 0.000000
vn 0.000000 -1.000000 0.000000
vn 0.000000 -1.000000 0.000000
vn 0.000003 1.000000 -0.000001
vn 0.000002 1.000000 -0.000002
vn 0.000000 1.000000 -0.000000
vn 0.000002 1.000000 -0.000002
vn 0.000001 1.000000 -0.000003
vn 0.000004 1.000000 -0.000003
vn 0.000004 1.000000 -0.000001
vn -0.000004 1.000000 0.000003
vn -0.000005 1.000000 0.000002
vn -0.000003 1.000000 -0.000001
vn -0.000003 1.000000 0.000000
vn -0.000004 1.000000 -0.000004
vn -0.000003 1.000000 -0.000004
vn 0.000004 1.000000 0.000003
vn 0.000003 1.000000 0.000004
vn 0.000000 1.000000 0.000003
vn 0.000001 1.000000 0.000003
vn 0.000002 1.000000 0.000003
vn -0.000000 1.000000 0.000005
vn -0.000000 1.000000 -0.000001
vn 0.000003 1.000000 -0.000005
vn 0.760531 0.600441 -0.247111
vn 0.646946 0.600441 -0.470034
vn 0.646946 0.600441 -0.470034
vn 0.760531 0.600441 -0.247111
vn 0.470033 0.600441 -0.646946
vn 0.470033 0.600441 -0.646946
vn 0.247111 0.600441 -0.760531
vn 0.247111 0.600441 -0.760531
vn 0.000001 0.600441 -0.799669
vn 0.000001 0.600441 -0.799669
vn -0.247110 0.600441 -0.760531
vn -0.247110 0.600441 -0.760531
vn -0.470035 0.600440 -0.646946
vn -0.470035 0.600440 -0.646946
vn -0.646947 0.600440 -0.470033
vn -0.646947 0.600440 -0.470033
vn -0.760531 0.600441 -0.247111
vn -0.760531 0.600441 -0.247111
vn -0.799669 0.600441 0.000000
vn -0.799669 0.600441 0.000000
vn -0.760531 0.600440 0.247110
vn -0.760531 0.600440 0.247110
vn -0.646947 0.600440 0.470034
vn -0.646947 0.600440 0.470034
vn -0.470032 0.600440 0.646948
vn -0.470032 0.600440 0.646948
vn -0.247110 0.600440 0.760531
vn -0.247110 0.600440 0.760531
vn 0.000000 0.600441 0.799669
vn 0.000000 0.600441 0.799669
vn 0.247111 0.600441 0.760530
vn 0.247111 0.600441 0.760530
vn 0.470033 0.600441 0.646946
vn 0.470033 0.600441 0.646946
vn 0.646945 0.600440 0.470035
vn 0.646945 0.600440 0.470035
vn 0.760531 0.600440 0.247112
vn 0.760531 0.600440 0.247112
vn 0.799669 0.600440 0.000000
vn 0.799669 0.600440 0.000000
vn 0.000000 -1.000000 -0.000000
vn 0.000000 -1.000000 0.000000
vn 0.000000 -1.000000 0.000000
vn 0.000000 -1.000000 -0.000000
vn 0.000000 -1.000000 -0.000000
vn 0.000000 -1.000000 -0.000000
vn 0.000000 -1.000000 -0.000000
vn 0.000000 -1.000000 -0.000000
vn 0.000000 -1.000000 0.000000
vn 0.000000 -1.000000 0.000000
vn 0.000000 -1.000000 0.000000
vn 0.000000 -1.000000 0.000000
vn 0.000000 -1.000000 0.000000
vn 0.000000 -1.000000 0.000000
vn 0.000000 -1.000000 -0.000000
vn 0.000000 -1.000000 -0.000000
vn 0.000000 -1.000000 -0.000000
vn 0.000000 -1.000000 -0.000000
vn 0.000000 -1.000000 0.000000
vn 0.000000 -1.000000 0.000000
vn 0.000000 -1.000000 0.000000
vn 0.000000 -1.000000 0.000000
vn 0.000000 -1.000000 -0.000000
vn 0.000000 -1.000000 -0.000000
vn 0.000000 -1.000000 -0.000000
vn 0.000000 -1.000000 -0.000000
vn 0.000000 -1.000000 -0.000000
vn 0.000000 -1.000000 -0.000000
vn 0.000000 -1.000000 -0.000000
vn 0.000000 -1.000000 -0.000000
vn 0.000000 -1.000000 -0.000000
vn 0.000000 -1.000000 -0.000000
vn -0.000000 -1.000000 -0.000000
vn -0.000000 -1.000000 -0.000000
vn -0.000000 -1.000000 -0.000000
vn -0.000000 -1.000000 -0.000000
vn 0.000000 -1.000000 0.000000
vn 0.000000 -1.000000 0.000000
vn 0.000000 -1.000000 0.000000
vn 0.000000 -1.000000 0.000000
vn -0.777665 -0.275688 0.565007
vn -0.914201 -0.275688 0.297041
vn -0.914201 -0.275688 0.297041
vn -0.777665 -0.275688 0.565007
vn -0.565006 -0.275688 0.777666
vn -0.565006 -0.275688 0.777666
vn -0.297041 -0.275689 0.914200
vn -0.297041 -0.275689 0.914200
vn -0.000001 -0.275689 0.961247
vn -0.000001 -0.275689 0.961247
vn 0.297041 -0.275689 0.914201
vn 0.297041 -0.275689 0.914201
vn 0.565007 -0.275689 0.777665
vn 0.565007 -0.275689 0.777665
vn 0.777666 -0.275689 0.565006
vn 0.777666 -0.275689 0.565006
vn 0.914200 -0.275689 0.297042
vn 0.914200 -0.275689 0.297042
vn 0.961247 -0.275689 0.000000
vn 0.961247 -0.275689 0.000000
vn 0.914200 -0.275689 -0.297042
vn 0.914200 -0.275689 -0.297042
vn 0.777665 -0.275689 -0.565007
vn 0.777665 -0.275689 -0.565007
vn 0.565007 -0.275689 -0.777665
vn 0.565007 -0.275689 -0.777665
vn 0.297041 -0.275689 -0.914200
vn 0.297041 -0.275689 -0.914200
vn -0.000000 -0.275689 -0.961247
vn -0.000000 -0.275689 -0.961247
vn -0.297041 -0.275689 -0.914200
vn -0.297041 -0.275689 -0.914200
vn -0.565007 -0.275689 -0.777665
vn -0.565007 -0.275689 -0.777665
vn -0.777665 -0.275689 -0.565007
vn -0.777665 -0.275689 -0.565007
vn -0.914200 -0.275688 -0.297042
vn -0.914200 -0.275688 -0.297042
vn -0.961247 -0.275688 -0.000001
vn -0.961247 -0.275688 -0.000001
s 1
g pCylinder4
usemtl initialShadingGroup
f 1/21/1 2/22/2 22/43/3 21/42/4
f 2/22/2 3/23/5 23/44/6 22/43/3
f 3/23/5 4/24/7 24/45/8 23/44/6
f 4/24/7 5/25/9 25/46/10 24/45/8
f 5/25/9 6/26/11 26/47/12 25/46/10
f 6/26/11 7/27/13 27/48/14 26/47/12
f 7/27/13 8/28/15 28/49/16 27/48/14
f 8/28/15 9/29/17 29/50/18 28/49/16
f 9/29/17 10/30/19 30/51/20 29/50/18
f 10/30/19 11/31/21 31/52/22 30/51/20
f 11/31/21 12/32/23 32/53/24 31/52/22
f 12/32/23 13/33/25 33/54/26 32/53/24
f 13/33/25 14/34/27 34/55/28 33/54/26
f 14/34/27 15/35/29 35/56/30 34/55/28
f 15/35/29 16/36/31 36/57/32 35/56/30
f 16/36/31 17/37/33 37/58/34 36/57/32
f 17/37/33 18/38/35 38/59/36 37/58/34
f 18/38/35 19/39/37 39/60/38 38/59/36
f 19/39/37 20/40/39 40/61/40 39/60/38
f 20/40/39 1/41/1 21/62/4 40/61/40
s 2
f 83/125/41 82/126/42 84/83/43
f 85/127/44 83/125/41 84/83/43
f 86/128/45 85/127/44 84/83/43
f 87/129/46 86/128/45 84/83/43
f 88/130/47 87/129/46 84/83/43
f 89/131/48 88/130/47 84/83/43
f 90/132/49 89/131/48 84/83/43
f 91/133/50 90/132/49 84/83/43
f 92/134/51 91/133/50 84/83/43
f 93/135/52 92/134/51 84/83/43
f 94/136/53 93/135/52 84/83/43
f 95/137/54 94/136/53 84/83/43
f 96/138/55 95/137/54 84/83/43
f 97/139/56 96/138/55 84/83/43
f 98/140/57 97/139/56 84/83/43
f 99/141/58 98/140/57 84/83/43
f 100/142/59 99/141/58 84/83/43
f 101/143/60 100/142/59 84/83/43
f 102/144/61 101/143/60 84/83/43
f 82/126/42 102/144/61 84/83/43
s 3
f 41/85/62 42/86/63 43/84/64
f 42/86/63 44/87/65 43/84/64
f 44/87/65 45/88/66 43/84/64
f 45/88/66 46/89/67 43/84/64
f 46/89/67 47/90/68 43/84/64
f 47/90/68 48/91/69 43/84/64
f 48/91/69 49/92/70 43/84/64
f 49/92/70 50/93/71 43/84/64
f 50/93/71 51/94/72 43/84/64
f 51/94/72 52/95/73 43/84/64
f 52/95/73 53/96/74 43/84/64
f 53/96/74 54/97/75 43/84/64
f 54/97/75 55/98/76 43/84/64
f 55/98/76 56/99/77 43/84/64
f 56/99/77 57/100/78 43/84/64
f 57/100/78 58/101/79 43/84/64
f 58/101/79 59/102/80 43/84/64
f 59/102/80 60/103/81 43/84/64
f 60/103/81 61/104/82 43/84/64
f 61/104/82 41/85/62 43/84/64
s 4
f 21/81/83 22/80/84 42/86/85 41/85/86
f 22/80/84 23/79/87 44/87/88 42/86/85
f 23/79/87 24/78/89 45/88/90 44/87/88
f 24/78/89 25/77/91 46/89/92 45/88/90
f 25/77/91 26/76/93 47/90/94 46/89/92
f 26/76/93 27/75/95 48/91/96 47/90/94
f 27/75/95 28/74/97 49/92/98 48/91/96
f 28/74/97 29/73/99 50/93/100 49/92/98
f 29/73/99 30/72/101 51/94/102 50/93/100
f 30/72/101 31/71/103 52/95/104 51/94/102
f 31/71/103 32/70/105 53/96/106 52/95/104
f 32/70/105 33/69/107 54/97/108 53/96/106
f 33/69/107 34/68/109 55/98/110 54/97/108
f 34/68/109 35/67/111 56/99/112 55/98/110
f 35/67/111 36/66/113 57/100/114 56/99/112
f 36/66/113 37/65/115 58/101/116 57/100/114
f 37/65/115 38/64/117 59/102/118 58/101/116
f 38/64/117 39/63/119 60/103/120 59/102/118
f 39/63/119 40/82/121 61/104/122 60/103/120
f 40/82/121 21/81/83 41/85/86 61/104/122
s 5
f 2/2/123 1/1/124 62/106/125 63/105/126
f 3/3/127 2/2/123 63/105/126 64/107/128
f 4/4/129 3/3/127 64/107/128 65/108/130
f 5/5/131 4/4/129 65/108/130 66/109/132
f 6/6/133 5/5/131 66/109/132 67/110/134
f 7/7/135 6/6/133 67/110/134 68/111/136
f 8/8/137 7/7/135 68/111/136 69/112/138
f 9/9/139 8/8/137 69/112/138 70/113/140
f 10/10/141 9/9/139 70/113/140 71/114/142
f 11/11/143 10/10/141 71/114/142 72/115/144
f 12/12/145 11/11/143 72/115/144 73/116/146
f 13/13/147 12/12/145 73/116/146 74/117/148
f 14/14/149 13/13/147 74/117/148 75/118/150
f 15/15/151 14/14/149 75/118/150 76/119/152
f 16/16/153 15/15/151 76/119/152 77/120/154
f 17/17/155 16/16/153 77/120/154 78/121/156
f 18/18/157 17/17/155 78/121/156 79/122/158
f 19/19/159 18/18/157 79/122/158 80/123/160
f 20/20/161 19/19/159 80/123/160 81/124/162
f 1/1/124 20/20/161 81/124/162 62/106/125
s 6
f 63/105/163 62/106/164 82/126/165 83/125/166
f 64/107/167 63/105/163 83/125/166 85/127/168
f 65/108/169 64/107/167 85/127/168 86/128/170
f 66/109/171 65/108/169 86/128/170 87/129/172
f 67/110/173 66/109/171 87/129/172 88/130/174
f 68/111/175 67/110/173 88/130/174 89/131/176
f 69/112/177 68/111/175 89/131/176 90/132/178
f 70/113/179 69/112/177 90/132/178 91/133/180
f 71/114/181 70/113/179 91/133/180 92/134/182
f 72/115/183 71/114/181 92/134/182 93/135/184
f 73/116/185 72/115/183 93/135/184 94/136/186
f 74/117/187 73/116/185 94/136/186 95/137/188
f 75/118/189 74/117/187 95/137/188 96/138/190
f 76/119/191 75/118/189 96/138/190 97/139/192
f 77/120/193 76/119/191 97/139/192 98/140/194
f 78/121/195 77/120/193 98/140/194 99/141/196
f 79/122/197 78/121/195 99/141/196 100/142/198
f 80/123/199 79/122/197 100/142/198 101/143/200
f 81/124/201 80/123/199 101/143/200 102/144/202
f 62/106/164 81/124/201 102/144/202 82/126/165
