# This file uses centimeters as units for non-parametric coordinates.

mtllib erlen-chit.mtl
g default
v -0.057810 -0.038605 0.423779
v 0.057810 -0.038605 0.423779
v -0.057810 0.038605 0.423779
v 0.057810 0.038605 0.423779
v -0.057810 0.038605 -0.423779
v 0.057810 0.038605 -0.423779
v -0.057810 -0.038605 -0.423779
v 0.057810 -0.038605 -0.423779
v -0.526989 -0.038605 -0.119352
v -0.526989 -0.038605 0.119352
v -0.526989 0.038605 0.119352
v -0.526989 0.038605 -0.119352
v -1.053024 -0.038605 -0.119352
v -1.053024 -0.038605 0.119352
v -1.053024 0.038605 0.119352
v -1.053024 0.038605 -0.119352
vt 0.375000 0.000000
vt 0.625000 0.000000
vt 0.375000 0.250000
vt 0.625000 0.250000
vt 0.375000 0.500000
vt 0.625000 0.500000
vt 0.375000 0.750000
vt 0.625000 0.750000
vt 0.375000 1.000000
vt 0.625000 1.000000
vt 0.875000 0.000000
vt 0.875000 0.250000
vt 0.125000 0.000000
vt 0.125000 0.250000
vt 0.125000 0.000000
vt 0.375000 0.000000
vt 0.375000 0.250000
vt 0.125000 0.250000
vt 0.125000 0.000000
vt 0.375000 0.000000
vt 0.375000 0.250000
vt 0.125000 0.250000
vn 0.000000 0.000000 1.000000
vn 0.000000 0.000000 1.000000
vn 0.000000 0.000000 1.000000
vn 0.000000 0.000000 1.000000
vn 0.000000 1.000000 0.000000
vn 0.000000 1.000000 0.000000
vn 0.000000 1.000000 0.000000
vn 0.000000 1.000000 0.000000
vn 0.000000 0.000000 -1.000000
vn 0.000000 0.000000 -1.000000
vn 0.000000 0.000000 -1.000000
vn 0.000000 0.000000 -1.000000
vn 0.000000 -1.000000 0.000000
vn 0.000000 -1.000000 0.000000
vn 0.000000 -1.000000 0.000000
vn 0.000000 -1.000000 0.000000
vn 1.000000 0.000000 0.000000
vn 1.000000 0.000000 0.000000
vn 1.000000 0.000000 0.000000
vn 1.000000 0.000000 0.000000
vn -1.000000 0.000000 0.000000
vn -1.000000 0.000000 0.000000
vn -1.000000 0.000000 0.000000
vn -1.000000 0.000000 0.000000
vn 0.000000 -1.000000 0.000000
vn 0.000000 -1.000000 0.000000
vn -0.544310 0.000000 0.838884
vn -0.544310 0.000000 0.838884
vn -0.544310 0.000000 0.838884
vn -0.544310 0.000000 0.838884
vn 0.000000 1.000000 0.000000
vn 0.000000 1.000000 0.000000
vn -0.544310 0.000000 -0.838884
vn -0.544310 0.000000 -0.838884
vn -0.544310 0.000000 -0.838884
vn -0.544310 0.000000 -0.838884
vn 0.000000 -1.000000 0.000000
vn 0.000000 -1.000000 0.000000
vn 0.000000 0.000000 1.000000
vn 0.000000 0.000000 1.000000
vn 0.000000 0.000000 1.000000
vn 0.000000 0.000000 1.000000
vn 0.000000 1.000000 0.000000
vn 0.000000 1.000000 0.000000
vn 0.000000 0.000000 -1.000000
vn 0.000000 0.000000 -1.000000
vn 0.000000 0.000000 -1.000000
vn 0.000000 0.000000 -1.000000
s off
g pCube1
usemtl initialShadingGroup
f 1/1/1 2/2/2 4/4/3 3/3/4
s 1
f 3/3/5 4/4/6 6/6/7 5/5/8
s off
f 5/5/9 6/6/10 8/8/11 7/7/12
s 2
f 7/7/13 8/8/14 2/10/15 1/9/16
s off
f 2/2/17 8/11/18 6/12/19 4/4/20
f 13/19/21 14/20/22 15/21/23 16/22/24
s 2
f 7/13/13 1/1/16 10/16/25 9/15/26
s off
f 1/1/27 3/3/28 11/17/29 10/16/30
s 1
f 3/3/5 5/14/8 12/18/31 11/17/32
s off
f 5/14/33 7/13/34 9/15/35 12/18/36
s 2
f 9/15/26 10/16/25 14/20/37 13/19/38
s off
f 10/16/39 11/17/40 15/21/41 14/20/42
s 1
f 11/17/32 12/18/31 16/22/43 15/21/44
s off
f 12/18/45 9/15/46 13/19/47 16/22/48
